<?xml version="1.0" encoding="UTF-8" standalone="no"?>
<svg
   height="750"
   viewBox="0 0 750 750"
   width="750"
   version="1.1"
   id="svg4"
   sodipodi:docname="lotokruhlogo.svg"
   inkscape:version="1.1.2 (0a00cf5339, 2022-02-04)"
   xmlns:inkscape="http://www.inkscape.org/namespaces/inkscape"
   xmlns:sodipodi="http://sodipodi.sourceforge.net/DTD/sodipodi-0.dtd"
   xmlns="http://www.w3.org/2000/svg"
   xmlns:svg="http://www.w3.org/2000/svg">
  <defs
     id="defs8">
    <clipPath
       clipPathUnits="userSpaceOnUse"
       id="clipPath132">
      <rect
         style="fill:#ff0000;stroke-width:1.67847"
         id="rect134"
         width="906.80951"
         height="871.00159"
         x="-62.62603"
         y="-313.98697" />
    </clipPath>
  </defs>
  <sodipodi:namedview
     id="namedview6"
     pagecolor="#ffffff"
     bordercolor="#666666"
     borderopacity="1.0"
     inkscape:pageshadow="2"
     inkscape:pageopacity="0.0"
     inkscape:pagecheckerboard="0"
     showgrid="false"
     inkscape:zoom="0.99070689"
     inkscape:cx="316.94541"
     inkscape:cy="374.48008"
     inkscape:window-width="1920"
     inkscape:window-height="995"
     inkscape:window-x="0"
     inkscape:window-y="0"
     inkscape:window-maximized="1"
     inkscape:current-layer="svg4"
     height="830.71997px" />
  <path
     d="m 338.21831,357.84538 c 1.19936,8.90624 4.80896,17.34272 6.12672,26.24 2.21632,14.96704 1.81056,30.43072 0.38208,45.43999 -0.56704,5.95712 0.7712,19.37088 -3.78112,23.93408 -58.48769,3.61409 -121.18018,15.99713 -174.24768,30.91968 -4.77056,1.37152 -8.80832,3.65696 -12.29504,-1.09696 -3.3088,-4.51008 -8.83328,-15.82656 -7.0496,-21.6384 12.50749,-10.03036 23.99386,-21.40406 32.51328,-33.3984 17.20896,-24.32383 23.93216,-53.14047 15.16992,-81.91999 -17.02144,-55.9072 -94.50623,-67.02656 -139.698546,-41.04192 -28.96775,16.65536 -45.26676,50.46784 -46.0706199,83.28192 -0.83132,33.93343 16.2958899,69.43999 49.9106199,81.05983 13.294076,4.5952 27.730707,4.84762 41.599996,4.05056 4.38727,-0.25213 10.8329,-1.13289 17.14559,-1.78368 6.66368,3.11488 9.09376,19.11488 9.0944,25.47328 l -24.95999,8.28608 -51.199996,19.87392 c 2.23449,7.7568 10.56531,21.24224 19.84,21.50528 39.723216,-14.24773 81.888376,-31.47238 118.399986,-42.25664 45.96352,-13.44448 92.3904,-24.51072 140.16,-29.05984 69.73185,-6.64064 141.85345,0.96064 209.92001,17.09696 37.1821,8.81472 73.1942,20.90432 108.8,34.67328 16.0768,6.2176 34.5344,18.38784 51.84,19.80096 -2.8544,-6.10432 -10.5536,-9.6832 -16,-13.22048 -15.4944,-10.06336 -32.4736,-18.04864 -49.28,-25.62368 -5.9578,-2.68608 -18.4602,-5.10208 -22.6541,-10.064 -3.0521,-3.61088 -1.984,-13.2448 -1.5571,-17.65184 0.9664,-9.9904 4.5434,-20.72896 8.0883,-30.08 1.49147,-3.72926 1.98116,-6.77069 3.96608,-9.242 1.09825,-1.36737 6.85164,-0.96629 11.51682,-0.998 9.23049,-0.0627 18.4832,-0.8384 27.52,-2.83136 32.224,-7.10784 60.096,-25.82975 74.7136,-56.04863 6.08,-12.56192 9.5808,-27.65248 9.7664,-41.6 0.2752,-20.10048 0.1408,-41.23776 -11.2256,-58.88 -27.8464,-43.22816 -88.288,-50.12608 -134.0544,-37.2096 -14.5229,4.09856 -28.5082,10 -40.32,19.584 -47.5264,38.5632 -58.1312,125.05856 0.64,158.69503 7.7235,4.42048 17.3626,9.2992 26.24,10.61056 1.1622,14.72704 -0.7366,27.98592 -8.3277,40.96 -1.7933,3.0656 -4.4749,9.23968 -7.8643,10.74432 -2.4058,1.06752 -7.0138,-1.09696 -9.408,-1.78432 -7.4336,-2.13312 -14.8973,-4.12352 -22.4,-5.99872 -28.33536,-7.08416 -56.784,-13.05088 -85.76,-16.8608 -16.23104,-2.1344 -32.92608,-4.25024 -49.28,-4.65088 -4.3616,-0.10688 -16.2368,1.42656 -19.20384,-2.13312 -7.44385,-8.93056 -6.53761,-24.89472 -7.94753,-35.63648 -0.46912,-3.56863 -1.65504,-10.65791 0.28928,-13.86943 2.128,-3.51616 8.25921,-5.56224 11.50209,-8.0416 7.45984,-5.70304 14.13824,-12.43584 20.08576,-19.68896 4.01152,-4.89152 7.23328,-10.18304 9.72096,-16 1.31776,-3.0816 2.65557,-7.56516 4.94703,-10.07574 2.47353,-2.71005 12.80128,-5.3052 22.20625,-8.51626 13.11168,-4.90432 25.35424,-11.88864 36.48,-20.37376 51.95456,-39.62432 71.0643,-107.96864 58.5926,-170.31424 C 533.8324,115.60027 517.73064,82.307472 492.45832,57.045395 469.378,33.973844 438.69256,19.808597 407.33832,12.006422 358.47879,-0.1517896 301.60647,1.9555544 256.93831,26.877013 c -61.584,34.359038 -93.20704,101.219257 -91.5296,169.688367 0.68864,28.10048 6.81408,57.75872 21.81056,81.92 22.5152,36.27392 61.2768,57.53728 101.07904,69.776 15.81248,4.86208 33.29536,9.24096 49.92,9.584 m -3.84,-341.577263 c 11.1744,-1.318528 23.3856,-0.383296 34.56,0.4 42.62273,2.98784 90.18113,18.717823 119.57121,51.257275 53.3472,59.063038 62.8467,161.643508 7.68,222.719988 -11.4464,12.67328 -25.74976,23.52704 -40.8512,31.50016 -23.42848,12.36992 -49.10208,20.5952 -75.52001,23.4336 -64.41408,6.92096 -143.85024,-14.432 -181.5328,-70.93376 -11.13664,-16.69888 -16.86912,-37.34144 -20.1184,-56.96 -10.80192,-65.2128 13.83104,-136.047988 69.1712,-174.898737 25.99104,-18.246654 56.31808,-22.893566 87.04,-26.518526 m 28.16,31.448894 c -11.48672,1.489664 -23.03232,1.086336 -34.56,3.088384 -31.30496,5.436544 -60.50624,19.157117 -81.73696,43.359997 -46.09216,52.545908 -58.0096,146.650228 3.65696,192.975988 31.66912,23.79008 75.75744,27.78688 113.92,23.16096 22.48705,-2.72512 45.13793,-8.33088 65.28001,-18.94592 38.41088,-20.24256 65.44896,-60.20544 73.95264,-102.47104 6.45504,-32.08192 -4.11648,-72.34431 -26.06144,-96.639988 -19.39072,-21.46816 -45.56736,-34.433021 -73.4912,-40.591613 -12.56,-2.770112 -28.13761,-5.599552 -40.96001,-3.936768 m -12.16,10.151104 c 44.56513,-5.25824 99.61537,12.187837 126.13569,49.737275 8.00704,11.33696 12.6144,26.25344 15.57568,39.67999 2.25728,10.2336 3.82464,20.84928 2.81984,31.36 -3.27488,34.2752 -24.1536,66.98432 -49.1712,89.49056 -22.49024,20.23296 -55.61472,29.47328 -85.12001,32.6432 -36.28992,3.89952 -76.5376,0.76032 -106.24,-22.71936 -60.72448,-48.00384 -42.1152,-144.71679 10.24,-191.463028 23.23968,-20.75008 56.14528,-25.234301 85.76,-28.728637 m -4.48,27.608637 c -37.35808,4.96512 -75.72544,25.731838 -91.96224,61.168628 -14.96192,32.65344 -9.38688,77.44064 18.36224,101.57504 21.9232,19.06688 54.33024,25.47648 82.56,21.76448 45.82465,-6.0256 89.60577,-42.21184 96.36609,-89.41952 C 459.634,121.83707 400.85512,78.173072 345.89831,85.476752 m 7.04,8.23168 c 33.59169,-3.96352 72.91009,19.370878 85.47009,50.376948 5.55776,13.71968 5.78176,28.5664 2.57792,42.88 -8.79616,39.29664 -49.728,69.65888 -88.68801,73.4912 -28.19392,2.77376 -60.99776,-4.88896 -80.52864,-26.7712 -24.79232,-27.776 -19.49888,-74.90688 1.26848,-103.03999 17.88928,-24.23424 51.53088,-33.589758 79.90016,-36.936958 m -3.84,29.530878 c -18.93504,2.71168 -39.44704,11.89376 -48.4032,29.80607 -17.76384,35.52832 9.46496,77.5872 49.6832,72.77696 23.3888,-2.7968 43.99873,-17.41632 51.78945,-40.13696 12.27136,-35.7856 -16.43648,-67.69151 -53.06945,-62.44607 m 7.68,7.69728 c 28.35585,-0.64704 46.55361,24.63999 38.37505,51.54879 -5.9552,19.59232 -25.45281,34.68608 -46.05505,35.1904 -34.7328,0.8512 -58.44032,-35.68 -38.17024,-65.9104 9.91488,-14.78655 28.784,-20.43903 45.85024,-20.82879 m -8.96,25.58975 c -4.4032,0.69312 -8.76608,2.24512 -11.86048,5.5968 -10.50112,11.37408 0.4032,24.01344 13.78048,22.09024 14.92672,-2.14656 25.36448,-23.3504 5.76,-27.53984 -2.51712,-0.5376 -5.14176,-0.54656 -7.68,-0.1472 m 0,5.6896 c 14.6816,-2.5792 14.73792,13.49888 1.28,15.50528 -12.87808,1.92064 -12.98496,-13.4496 -1.28,-15.50528 m 288.64001,83.81248 c 12.2624,-1.44704 25.9456,-0.2848 37.76,3.1072 22.3744,6.4224 44.9664,21.20384 56.1152,42.14976 4.608,8.66432 5.9584,19.16544 6.6624,28.8 1.7088,23.34016 -1.248,48.62144 -14.7968,68.48 -15.936,23.36832 -45.2096,37.87455 -72.9408,40.85375 -35.3229,3.7952 -77.8406,-5.7824 -102.2886,-33.17375 -31.63524,-35.4432 -14.72836,-96.30592 17.8086,-124.61504 20.5357,-17.86688 45.6192,-22.52736 71.68,-25.60192 m -1.92,30.16832 c -19.4234,2.55168 -37.8138,7.728 -52.4774,21.5456 -25.8528,24.36288 -25.7844,70.91968 1.9174,93.72608 17.673,14.5504 42.4864,18.23104 64.64,15.47456 15.5072,-1.9296 30.1632,-7.45216 41.5424,-18.4864 27.7696,-26.92608 31.232,-74.99392 -1.2224,-99.57824 -6.7968,-5.14752 -14.848,-8.4064 -23.04,-10.56256 -9.8432,-2.59264 -21.2416,-3.44768 -31.36,-2.11904 m 2.56,6.31168 c 8.3584,-0.98624 17.6064,0.0371 25.6,2.59712 15.8592,5.07968 30.528,16.19392 37.2032,31.77984 15.2512,35.60576 -13.1136,77.16544 -50.0032,81.17376 -21.8445,2.37376 -48.025,-0.61888 -64.583,-16.6432 -21.1533,-20.47168 -16.8071,-61.50656 3.783,-80.47104 13.2832,-12.2336 30.6662,-16.39168 48,-18.43648 m -540.8,17.28 c 12.16063,-1.44 26.06207,-0.65088 37.75999,2.94336 11.33504,3.48224 22.84608,8.63424 32,16.25664 6.09216,5.07264 11.31584,10.8352 15.264,17.73696 30.57216,53.44704 -19.16032,119.99743 -74.784,125.97375 -16.90367,1.81632 -35.653746,1.60192 -51.199986,-6.17152 -44.90721,-22.45312 -44.50017,-88.56767 -17.34471,-124.28223 13.94163,-18.336 35.627586,-29.7728 58.304706,-32.45696 m 537.6,5.84832 c -7.0074,0.93184 -13.8656,2.33152 -19.84,6.35904 -18.3379,12.36032 -21.8502,40.29696 -5.7024,55.98016 9.5283,9.25376 22.9798,11.73952 35.7824,10.1664 6.4448,-0.79168 13.024,-2.8224 18.56,-6.2592 18.784,-11.65952 20.8512,-38.43776 6.2912,-54.34816 -8.384,-9.15648 -22.9184,-13.51616 -35.0912,-11.89824 m -1.28,5.6736 c 9.7024,-1.2608 20.096,1.05536 27.52,7.6128 11.5456,10.19328 14.9312,32.09728 2.5344,43.2096 -5.6128,5.02848 -13.1712,6.81856 -20.4544,7.6896 -11.0675,1.32416 -22.5331,-1.17504 -29.8694,-10.05696 -14.9869,-18.144 -1.9053,-45.57312 20.2694,-48.45504 m -532.48,8.4064 c -25.9168,3.44512 -46.868356,18.83072 -55.971836,43.88864 -11.54081,31.7664 -1.70612,70.74623 34.851836,78.93439 6.98688,1.5648 15.28832,1.75552 22.4,0.88256 19.68447,-2.41792 38.95039,-13.84192 50.61055,-29.89695 18.27008,-25.1552 20.85056,-64.4 -7.09056,-83.81504 -5.98656,-4.15936 -12.78784,-6.99264 -19.84,-8.74496 -7.81632,-1.9424 -16.97024,-2.3104 -24.95999,-1.24864 m 0,7.59168 c 36.71423,-4.39168 66.67391,25.1328 55.02143,61.89696 -7.8144,24.65664 -31.31712,42.85183 -56.94143,45.33119 -13.63328,1.31968 -30.903236,-3.27232 -40.020736,-13.99616 -10.61754,-12.48895 -11.728,-32.68031 -8.04397,-47.97503 5.90061,-24.49728 25.290946,-42.304 49.984706,-45.25696 m 537.6,0.0934 c -3.5046,0.46144 -7.3024,1.26016 -10.2374,3.33888 -6.7028,4.74752 -7.3127,14.6112 -0.633,19.70752 3.9245,2.99392 9.3171,3.37728 14.0704,2.79936 18.4832,-2.24896 15.0528,-28.2496 -3.2,-25.84576 m 1.28,5.21216 c 12.1408,0.10048 10.2592,13.91424 -1.28,13.6768 -12.2374,-0.25152 -9.6621,-13.76768 1.28,-13.6768 m -538.24,11.44836 c -15.6512,2.76544 -28.91328,15.2896 -33.458236,30.42304 -5.58976,18.6112 3.2464,39.51424 23.858236,42.70399 4.8736,0.75456 9.2064,0.81472 14.07999,-0.007 33.49248,-5.64607 51.11232,-65.78239 9.6,-73.11999 -4.29504,-0.75968 -9.78496,-0.75904 -14.07999,0 m 0.64,5.01504 c 3.65375,-0.52672 7.92959,-0.47616 11.51999,0.38336 34.86656,8.34432 16.63552,57.4432 -11.51999,61.23264 -14.24128,1.91616 -28.1024,-9.82336 -28.73344,-24.048 -0.69696,-15.7088 12.8512,-35.27936 28.73344,-37.568 m 298.88,4.928 c -1.2,11.73056 -12.15552,24.97664 -22.40001,30.08 l 3.84001,-26.88 z M 105.25831,364.5449 c -16.55679,3.12256 -14.91583,27.23264 3.2,23.72096 14.86464,-2.88192 13.88096,-26.94272 -3.2,-23.72096 m -1.2768,5.73824 c 9.74336,-2.70848 10.5696,9.06624 1.9168,11.34208 -7.50719,1.9744 -8.39423,-9.54176 -1.9168,-11.34208 M 75.81832,795.60536 c -0.0384,-57.7792 -1.92,-115.66079 -1.92,-173.43999 0,-8.5568 -0.53632,-17.08608 -0.63744,-25.6 -0.14784,-12.43584 1.72608,-26.31872 -14.082556,-29.14304 -6.86759,-1.22624 -10.06445,3.5776 -10.2306,9.94304 -0.37356,14.30912 0.6306,28.56384 0.6306,42.88 0,40.9984 -0.64,81.88799 -0.64,122.87999 v 37.12 c 0,6.6816 -0.79232,13.9264 0.64985,20.48 2.38957,10.8608 12.44711,16.512 23.030146,16.64 16.91904,0.1984 34.06015,-4.3904 49.91999,-10.0416 7.296,-2.5984 19.41184,-6.6752 21.98208,-14.9184 2.28672,-7.328 -6.62464,-18.3296 -14.30208,-17.5872 -5.31456,0.512 -10.448,7.6352 -15.36,9.9776 -12.00639,5.7216 -25.75423,9.76 -39.03999,10.8096 m 327.68,-14.72 h 0.64 c 4.63872,10.752 13.15712,20.9152 20.3456,30.08 3.63008,4.6272 7.07904,9.9008 12.2944,12.8768 5.88928,3.36 12.56384,2.2272 18.56,-0.3776 2.62272,-1.1392 5.9008,-3.4432 5.32416,-6.7392 -0.97792,-5.5808 -9.87968,-10.6048 -13.4592,-14.72 -10.87296,-12.4928 -20.5056,-26.272 -29.25632,-40.32 -2.43968,-3.9168 -8.87296,-11.0528 -8.99584,-15.7312 -0.1152,-4.3904 6.86784,-12.4544 9.13856,-16.2688 5.40992,-9.0816 10.56064,-18.3168 15.76,-27.52 3.02016,-5.344 7.32224,-11.77599 8.33152,-17.91999 1.3408,-8.1536 -9.70752,-16.1408 -16.25728,-10.1568 -3.8016,3.4752 -5.48352,8.4352 -8.14336,12.7168 -5.59808,9.00479 -12.35136,17.91359 -16.84224,27.51999 -2.83392,-9.5872 -0.64,-22.63679 -0.64,-32.63999 0,-21.1776 -1.38944,-42.87872 0.057,-64 0.73344,-10.7104 4.49024,-31.55968 -4.56448,-39.536 -6.22976,-5.48736 -15.55009,-4.48384 -16.97089,4.336 -2.6304,16.3296 -0.72768,34.03776 -0.92416,50.56 -0.4416,37.12 -1.55712,74.20159 -0.64704,111.35999 0.12672,5.1712 -2.73856,9.8368 -2.45568,14.72 0.23104,3.9936 3.23072,7.3472 3.63648,11.52 1.36384,14.0352 -1.73824,30.6368 2.88897,44.16 2.40896,7.04 21.73376,14.4448 25.35872,5.0944 1.45024,-3.744 0.004,-9.5296 -0.53568,-13.4144 -1.168,-8.4032 -2.46784,-17.1136 -2.6432,-25.6 m 287.99996,-72.96 h 0.64 c 0,19.8976 -0.4928,39.6736 -0.01,59.52 0.2688,10.9888 -0.6208,23.1424 1.7152,33.92 1.696,7.8272 9.4784,10.72 16.8512,10.8672 4.2944,0.0896 8.6208,-0.7744 9.2416,-5.7472 0.6592,-5.216 -1.4784,-11.4304 -2.0992,-16.64 -1.1264,-9.3376 -1.5872,-18.7776 -1.9968,-28.16 -0.928,-21.152 5.5488,-46.56 -3.2512,-66.56 -5.1968,-11.80159 -18.6944,-14.63679 -29.4144,-8.39679 -9.5936,5.58079 -17.9264,18.13119 -20.48,28.87679 -3.5392,-11.9616 -1.8624,-27.86559 -1.92,-40.31999 -0.09,-18.7584 -1.696,-37.54368 -1.92,-56.32 -0.128,-10.6208 2.0096,-29.59552 -10.24,-33.85536 -3.552,-1.2352 -9.0848,-2.48192 -11.5596,1.30048 -2.5255,3.86048 -1.2404,10.87424 -1.2404,15.27488 0,12.40256 0.64,24.74944 0.64,37.12 0,30.7392 1.1917,61.49119 2.5351,92.15999 0.7705,17.6064 0.061,35.6032 2.128,53.12 1.6352,13.8624 -2.1018,32.6528 15.8169,35.2 3.4368,0.4864 7.8528,1.2352 10.6048,-1.5552 3.8784,-3.9424 0.3008,-12.2432 0.2752,-17.0048 -0.064,-13.8176 2.4,-28.096 5.2544,-41.6 2.6304,-12.4352 6.0096,-24.7744 11.0208,-36.48 2.1568,-5.0368 5.4784,-9.632 7.4048,-14.72 m -459.51997,-8.96 c -2.55872,32.4224 -3.09632,66.8672 0.8224,99.2 0.4896,4.0384 0.72,9.2544 3.10976,12.6912 3.8592,5.5424 17.33568,9.3376 22.80192,4.32 5.8752,-5.3952 -1.07648,-22.8288 -1.72608,-29.8112 -2.77184,-29.792 -1.968,-59.1104 -1.968,-88.96 7.38944,-0.064 22.80512,-0.1216 28.7328,-4.84479 4.19072,-3.3408 6.9952,-13.856 1.8432,-17.5488 -6.47616,-4.6464 -22.87808,0.8128 -29.936,2.5536 0.0826,-9.9648 0.86848,-20.1024 1.30496,-30.08 0.24256,-5.5296 1.18912,-10.58816 -0.73152,-16 -2.03712,-5.73888 -12.72384,-13.51296 -18.07552,-6.94528 -3.19552,3.92192 -2.70144,11.14048 -3.03552,15.90528 -0.81152,11.5776 1.09056,26.6624 -2.14016,37.7344 -1.07264,3.6736 -5.61088,3.3472 -8.68224,4 -6.64448,1.4144 -14.816,6.4512 -12.43328,14.57279 2.0128,6.8672 14.97152,3.2576 20.11328,3.2128 m 253.44001,1.28 h -0.64 c -0.92864,-5.0048 -0.1216,-11.10399 -3.46816,-15.33439 -3.41504,-4.32 -16.02304,-9.4912 -18.71168,-1.9328 -3.85728,10.84159 -0.22016,26.95039 -0.22016,38.38719 0,24.9024 -1.37792,50.1376 -4.29696,74.88 -0.4544,3.8464 -1.07776,9.8752 0.66048,13.44 2.9568,6.0672 15.53984,11.488 21.47136,6.7136 3.57888,-2.8864 3.23136,-9.5744 3.28768,-13.7536 0.14336,-10.6304 0.83712,-21.3696 1.3024,-32 0.3616,-8.256 2.7648,-16.416 5.00544,-24.32 4.7744,-16.8448 10.53504,-35.3024 23.1296,-48 -1.11744,4.6912 -1.56544,11.328 1.54816,15.3472 3.72672,4.8192 15.95584,10.4512 21.16288,4.864 2.1088,-2.2656 1.99552,-7.0336 2.192,-9.9712 0.67328,-10.0736 0.23104,-26.08639 -8.28864,-33.03039 -15.7664,-12.8448 -38.94976,11.0336 -44.1344,24.71039 M 325.41831,673.05177 c -15.80224,1.0496 -26.72832,14.8352 -32.25344,28.47359 -10.72896,26.4832 -11.70048,59.5072 -4.78528,87.04 3.97504,15.8272 13.80288,36.4096 33.19872,35.1424 15.34784,-1.0048 25.84384,-13.984 32.15616,-26.8224 12.54976,-25.5232 13.32416,-62.7136 4.74368,-89.6 -2.5664,-8.0384 -6.42048,-17.22239 -13.22944,-22.60479 -3.1072,-2.4576 -6.86848,-3.0464 -10.05248,-5.1072 -4.17472,-2.7008 -3.30816,-6.944 -9.77792,-6.5216 m -150.4,7.008 c -13.79456,2.4896 -21.02656,16.30079 -24.77888,28.50559 -7.83296,25.4784 -8.7744,55.3664 0.4928,80.64 5.69664,15.5392 19.8432,29.5488 37.72608,24.8576 11.2128,-2.9376 21.41376,-12.4928 24.94144,-23.5776 2.4736,-7.776 -0.8,-17.9968 -10.22144,-19.0784 -8.41088,-0.9664 -10.736,11.5456 -13.61536,17.1584 -1.28832,2.5088 -3.56224,5.9456 -6.86464,5.4848 -6.88576,-0.9536 -9.61664,-13.4784 -11.0496,-18.9248 -0.95104,-3.6096 -4.04672,-12.4352 -1.89568,-15.7888 3.85664,-6.016 12.89024,-10.3808 17.67104,-16.2112 7.904,-9.6384 15.4528,-23.072 15.74464,-35.84 0.3616,-15.78239 -11.456,-30.23359 -28.1504,-27.22559 m 421.12001,107.86559 c 0.2534,12.288 3.8694,27.3408 18.56,27.52 3.4656,0.0384 7.9174,0.3904 10.2336,-2.7776 2.0717,-2.8288 0.489,-6.4192 -0.4134,-9.3824 -1.8957,-6.2272 -3.1668,-12.7808 -4.2176,-19.2 -3.5482,-21.664 -4.5223,-43.392 -4.953,-65.28 -0.1235,-6.2976 3.1187,-13.0112 2.1549,-19.2 -1.3914,-8.92799 -7.5783,-23.43679 -19.433,-18.72639 -3.5001,1.3888 -3.4611,4.7104 -4.0889,7.8464 -1.3632,6.80319 -2.2695,13.54239 -2.9146,20.47999 -1.7824,19.1744 -5.3094,39.4432 -11.8464,57.6 -2.8499,7.9168 -7.4291,14.7584 -10.6016,22.4 -2.9766,-6.1888 -1.92,-15.0144 -1.92,-21.76 0,-16.928 0.425,-34.3488 2.0288,-51.2 0.7802,-8.1984 4.4173,-23.6864 -1.017,-30.70719 -3.4201,-4.4224 -14.222,-9.4336 -17.703,-2.5472 -4.1824,8.2816 -2.5824,21.59999 -3.2058,30.69439 -1.694,24.7104 -4.7596,50.1248 -2.3942,74.88 1.1162,11.6864 5.2154,25.888 19.0912,26.6368 17.3664,0.9408 22.1267,-18.3296 32.64,-27.2768 m -267.52001,-87.68 c 13.48544,21.8752 13.34592,55.0464 6.94144,79.36 -1.73696,6.592 -4.13824,13.824 -8.464,19.2 -1.33632,1.664 -3.71776,4.6912 -6.14784,4.4544 -2.53376,-0.2432 -4.31872,-3.7632 -5.3664,-5.7344 -3.15712,-5.9392 -4.704,-12.6272 -5.89184,-19.2 -4.55424,-25.2096 -4.5728,-56.64 8.68864,-79.36 z m -149.12,0.64 c 3.48736,11.8016 -3.76128,21.9008 -9.6,31.36 h -0.64 c 0.0256,-9.2672 2.53504,-25.312 10.24,-31.36 z"
     id="path2"
     style="fill:#ffffff"
     clip-path="url(#clipPath132)"
     transform="translate(-2.6000061,94.095347)" />
</svg>
